<svg xmlns="http://www.w3.org/2000/svg" viewBox="0 0 559.54 77.89"><defs><style>.cls-1{fill:#fda50d;}.cls-2{fill:#0c2659;}</style></defs><g id="Layer_2" data-name="Layer 2"><g id="Layer_1-2" data-name="Layer 1"><path class="cls-1" d="M328.23,58.48V1.62h10.4V25.26h25.5V1.62h10.4V58.48h-10.4V33.71h-25.5V58.48Z"/><path class="cls-1" d="M402,59.46a22,22,0,0,1-10.8-2.6,18.82,18.82,0,0,1-7.39-7.31,21.6,21.6,0,0,1-2.68-10.89,23,23,0,0,1,2.64-11.12,19.17,19.17,0,0,1,7.31-7.6,21.49,21.49,0,0,1,11-2.72,20.76,20.76,0,0,1,10.48,2.6,18.61,18.61,0,0,1,7.11,7.11,19.91,19.91,0,0,1,2.56,10c0,.59,0,1.22,0,1.87s-.07,1.32-.12,2H391.46a10.54,10.54,0,0,0,3.29,7.39,10.34,10.34,0,0,0,7.19,2.68,9.42,9.42,0,0,0,5.32-1.42,8.75,8.75,0,0,0,3.21-3.7H421a19.2,19.2,0,0,1-3.78,6.95,18.64,18.64,0,0,1-6.49,4.91A20.62,20.62,0,0,1,402,59.46Zm.08-33.79a11.11,11.11,0,0,0-6.74,2.15,10,10,0,0,0-3.73,6.54h20.06A8.77,8.77,0,0,0,408.76,28,9.7,9.7,0,0,0,402.1,25.67Z"/><path class="cls-1" d="M441.25,59.46a19.05,19.05,0,0,1-8.53-1.67,11.57,11.57,0,0,1-5-4.42,11.82,11.82,0,0,1-1.62-6.1,11.09,11.09,0,0,1,4.38-9.09q4.39-3.49,13.16-3.5h10.24v-1q0-4.14-2.36-6.09a8.87,8.87,0,0,0-5.85-1.95,10.05,10.05,0,0,0-5.52,1.5,6.44,6.44,0,0,0-2.92,4.43H427.11a14.15,14.15,0,0,1,3-7.64,16.55,16.55,0,0,1,6.62-5,22.72,22.72,0,0,1,9.1-1.75q8.61,0,13.56,4.31t5,12.18V58.48h-8.86l-1-6.49a15.07,15.07,0,0,1-5,5.36A14.8,14.8,0,0,1,441.25,59.46Zm2.35-8.12a8.61,8.61,0,0,0,6.95-2.93,14.18,14.18,0,0,0,3.12-7.23h-8.85q-4.14,0-5.93,1.51a4.65,4.65,0,0,0-1.79,3.69A4.28,4.28,0,0,0,438.89,50,7.87,7.87,0,0,0,443.6,51.34Z"/><path class="cls-1" d="M471.8,58.48V0h10.39V58.48Z"/><path class="cls-1" d="M507.23,58.48q-6.33,0-10.15-3.08t-3.82-11V26.89h-6.9v-8.7h6.9l1.22-10.8h9.18v10.8h10.89v8.7H503.66V44.51q0,2.93,1.26,4c.84.73,2.29,1.1,4.35,1.1h5v8.85Z"/><path class="cls-1" d="M520.06,58.48V0h10.4V24.37a14.52,14.52,0,0,1,5.48-5.24,16.12,16.12,0,0,1,7.92-1.91q7.47,0,11.58,4.71t4.1,13.81V58.48H549.22V36.71q0-5.19-2.07-8T540.61,26a9.52,9.52,0,0,0-7.27,3.09q-2.88,3.09-2.88,8.61V58.48Z"/><path class="cls-2" d="M63.14,77.89V19.73H72.4l1.14,5.76a18.7,18.7,0,0,1,5.16-4.71,15.37,15.37,0,0,1,8.32-2,19,19,0,0,1,10.16,2.76,19.85,19.85,0,0,1,7.06,7.56A22.35,22.35,0,0,1,106.84,40a22.18,22.18,0,0,1-2.6,10.85,19.6,19.6,0,0,1-7.06,7.47A19.19,19.19,0,0,1,87,61a17.57,17.57,0,0,1-8-1.71,14.3,14.3,0,0,1-5.52-4.79v23.4Zm21.69-26A11,11,0,0,0,93,48.56,11.79,11.79,0,0,0,96.28,40,12.08,12.08,0,0,0,93,31.26a11.66,11.66,0,0,0-16.44,0,12,12,0,0,0-3.21,8.65,12,12,0,0,0,3.21,8.65A10.84,10.84,0,0,0,84.83,51.89Z"/><path class="cls-2" d="M130.11,60q-6.33,0-10.15-3.09t-3.82-11V28.42h-6.9V19.73h6.9l1.22-10.81h9.18V19.73h10.88v8.69H126.54V46q0,2.93,1.26,4c.84.74,2.29,1.1,4.34,1.1h5V60Z"/><path class="cls-2" d="M147.85,13.47a6.61,6.61,0,0,1-4.67-1.7,5.65,5.65,0,0,1-1.83-4.31,5.5,5.5,0,0,1,1.83-4.26,7.36,7.36,0,0,1,9.34,0,5.5,5.5,0,0,1,1.83,4.26,5.65,5.65,0,0,1-1.83,4.31A6.58,6.58,0,0,1,147.85,13.47ZM142.65,60V19.73h10.4V60Z"/><path class="cls-2" d="M161.66,60V3.16H174l18.11,36.06L210,3.16h12.35V60h-10.4V20.78L196.1,51.89h-8.2L172.06,20.78V60Z"/><path class="cls-2" d="M249.87,61a22,22,0,0,1-10.8-2.6,18.82,18.82,0,0,1-7.39-7.31A21.59,21.59,0,0,1,229,40.2a23,23,0,0,1,2.64-11.13,19.17,19.17,0,0,1,7.31-7.6,21.51,21.51,0,0,1,11-2.72,20.74,20.74,0,0,1,10.47,2.6,18.61,18.61,0,0,1,7.11,7.11,19.91,19.91,0,0,1,2.56,10c0,.6,0,1.22,0,1.87s-.07,1.33-.12,2H239.31a10.54,10.54,0,0,0,3.29,7.39,10.34,10.34,0,0,0,7.19,2.68A9.42,9.42,0,0,0,255.11,51a8.75,8.75,0,0,0,3.21-3.7h10.56a19.2,19.2,0,0,1-3.78,6.95,18.64,18.64,0,0,1-6.49,4.91A20.62,20.62,0,0,1,249.87,61ZM250,27.2a11.12,11.12,0,0,0-6.75,2.15,10,10,0,0,0-3.73,6.54h20.06a8.81,8.81,0,0,0-2.92-6.34A9.73,9.73,0,0,0,250,27.2Z"/><path class="cls-2" d="M294,61a18.89,18.89,0,0,1-10.15-2.76,19.73,19.73,0,0,1-7.07-7.56,22.46,22.46,0,0,1-2.6-10.88A22.22,22.22,0,0,1,276.76,29a19.58,19.58,0,0,1,7.07-7.48A19.13,19.13,0,0,1,294,18.75a17.54,17.54,0,0,1,8,1.71,14.3,14.3,0,0,1,5.52,4.79V1.53h10.4V60H308.6l-1.14-5.77A18.65,18.65,0,0,1,302.31,59,15.41,15.41,0,0,1,294,61Zm2.19-9.1a10.88,10.88,0,0,0,8.25-3.37,12,12,0,0,0,3.21-8.65,12,12,0,0,0-3.21-8.65,11.77,11.77,0,0,0-16.45,0,11.79,11.79,0,0,0-3.25,8.61A12.07,12.07,0,0,0,288,48.48,10.81,10.81,0,0,0,296.17,51.89Z"/><path class="cls-2" d="M15.38,15.44q4.87-5.35,13-5.36t13,5.36A19.57,19.57,0,0,1,46,26.9H56.68a30.43,30.43,0,0,0-3.44-12.06,26.14,26.14,0,0,0-10-10.36A29.07,29.07,0,0,0,28.38.74,29,29,0,0,0,13.47,4.48a26.41,26.41,0,0,0-10,10.36A30,30,0,0,0,0,26.9H10.67A19.53,19.53,0,0,1,15.38,15.44ZM41.33,45.93Q36.5,51.3,28.38,51.29t-13-5.36c-2.65-2.93-4.23-7.28-4.71-12H0a32.57,32.57,0,0,0,3.48,12.6,26.41,26.41,0,0,0,10,10.36,29,29,0,0,0,14.91,3.73A29.06,29.06,0,0,0,43.25,56.9a26.14,26.14,0,0,0,10-10.36,33.08,33.08,0,0,0,3.44-12.6H46C45.53,38.65,44,43,41.33,45.93Z"/><path class="cls-1" d="M328.23,58.48V1.62h10.4V25.26h25.5V1.62h10.4V58.48h-10.4V33.71h-25.5V58.48Z"/><path class="cls-1" d="M402,59.46a22,22,0,0,1-10.8-2.6,18.82,18.82,0,0,1-7.39-7.31,21.6,21.6,0,0,1-2.68-10.89,23,23,0,0,1,2.64-11.12,19.17,19.17,0,0,1,7.31-7.6,21.49,21.49,0,0,1,11-2.72,20.76,20.76,0,0,1,10.48,2.6,18.61,18.61,0,0,1,7.11,7.11,19.91,19.91,0,0,1,2.56,10c0,.59,0,1.22,0,1.87s-.07,1.32-.12,2H391.46a10.54,10.54,0,0,0,3.29,7.39,10.34,10.34,0,0,0,7.19,2.68,9.42,9.42,0,0,0,5.32-1.42,8.75,8.75,0,0,0,3.21-3.7H421a19.2,19.2,0,0,1-3.78,6.95,18.64,18.64,0,0,1-6.49,4.91A20.62,20.62,0,0,1,402,59.46Zm.08-33.79a11.11,11.11,0,0,0-6.74,2.15,10,10,0,0,0-3.73,6.54h20.06A8.77,8.77,0,0,0,408.76,28,9.7,9.7,0,0,0,402.1,25.67Z"/><path class="cls-1" d="M441.25,59.46a19.05,19.05,0,0,1-8.53-1.67,11.57,11.57,0,0,1-5-4.42,11.82,11.82,0,0,1-1.62-6.1,11.09,11.09,0,0,1,4.38-9.09q4.39-3.49,13.16-3.5h10.24v-1q0-4.14-2.36-6.09a8.87,8.87,0,0,0-5.85-1.95,10.05,10.05,0,0,0-5.52,1.5,6.44,6.44,0,0,0-2.92,4.43H427.11a14.15,14.15,0,0,1,3-7.64,16.55,16.55,0,0,1,6.62-5,22.72,22.72,0,0,1,9.1-1.75q8.61,0,13.56,4.31t5,12.18V58.48h-8.86l-1-6.49a15.07,15.07,0,0,1-5,5.36A14.8,14.8,0,0,1,441.25,59.46Zm2.35-8.12a8.61,8.61,0,0,0,6.95-2.93,14.18,14.18,0,0,0,3.12-7.23h-8.85q-4.14,0-5.93,1.51a4.65,4.65,0,0,0-1.79,3.69A4.28,4.28,0,0,0,438.89,50,7.87,7.87,0,0,0,443.6,51.34Z"/><path class="cls-1" d="M471.8,58.48V0h10.39V58.48Z"/><path class="cls-1" d="M507.23,58.48q-6.33,0-10.15-3.08t-3.82-11V26.89h-6.9v-8.7h6.9l1.22-10.8h9.18v10.8h10.89v8.7H503.66V44.51q0,2.93,1.26,4c.84.73,2.29,1.1,4.35,1.1h5v8.85Z"/><path class="cls-1" d="M520.06,58.48V0h10.4V24.37a14.52,14.52,0,0,1,5.48-5.24,16.12,16.12,0,0,1,7.92-1.91q7.47,0,11.58,4.71t4.1,13.81V58.48H549.22V36.71q0-5.19-2.07-8T540.61,26a9.52,9.52,0,0,0-7.27,3.09q-2.88,3.09-2.88,8.61V58.48Z"/><path class="cls-2" d="M63.14,77.89V19.73H72.4l1.14,5.76a18.7,18.7,0,0,1,5.16-4.71,15.37,15.37,0,0,1,8.32-2,19,19,0,0,1,10.16,2.76,19.85,19.85,0,0,1,7.06,7.56A22.35,22.35,0,0,1,106.84,40a22.18,22.18,0,0,1-2.6,10.85,19.6,19.6,0,0,1-7.06,7.47A19.19,19.19,0,0,1,87,61a17.57,17.57,0,0,1-8-1.71,14.3,14.3,0,0,1-5.52-4.79v23.4Zm21.69-26A11,11,0,0,0,93,48.56,11.79,11.79,0,0,0,96.28,40,12.08,12.08,0,0,0,93,31.26a11.66,11.66,0,0,0-16.44,0,12,12,0,0,0-3.21,8.65,12,12,0,0,0,3.21,8.65A10.84,10.84,0,0,0,84.83,51.89Z"/><path class="cls-2" d="M130.11,60q-6.33,0-10.15-3.09t-3.82-11V28.42h-6.9V19.73h6.9l1.22-10.81h9.18V19.73h10.88v8.69H126.54V46q0,2.93,1.26,4c.84.74,2.29,1.1,4.34,1.1h5V60Z"/><path class="cls-2" d="M147.85,13.47a6.61,6.61,0,0,1-4.67-1.7,5.65,5.65,0,0,1-1.83-4.31,5.5,5.5,0,0,1,1.83-4.26,7.36,7.36,0,0,1,9.34,0,5.5,5.5,0,0,1,1.83,4.26,5.65,5.65,0,0,1-1.83,4.31A6.58,6.58,0,0,1,147.85,13.47ZM142.65,60V19.73h10.4V60Z"/><path class="cls-2" d="M161.66,60V3.16H174l18.11,36.06L210,3.16h12.35V60h-10.4V20.78L196.1,51.89h-8.2L172.06,20.78V60Z"/><path class="cls-2" d="M249.87,61a22,22,0,0,1-10.8-2.6,18.82,18.82,0,0,1-7.39-7.31A21.59,21.59,0,0,1,229,40.2a23,23,0,0,1,2.64-11.13,19.17,19.17,0,0,1,7.31-7.6,21.51,21.51,0,0,1,11-2.72,20.74,20.74,0,0,1,10.47,2.6,18.61,18.61,0,0,1,7.11,7.11,19.91,19.91,0,0,1,2.56,10c0,.6,0,1.22,0,1.87s-.07,1.33-.12,2H239.31a10.54,10.54,0,0,0,3.29,7.39,10.34,10.34,0,0,0,7.19,2.68A9.42,9.42,0,0,0,255.11,51a8.75,8.75,0,0,0,3.21-3.7h10.56a19.2,19.2,0,0,1-3.78,6.95,18.64,18.64,0,0,1-6.49,4.91A20.62,20.62,0,0,1,249.87,61ZM250,27.2a11.12,11.12,0,0,0-6.75,2.15,10,10,0,0,0-3.73,6.54h20.06a8.81,8.81,0,0,0-2.92-6.34A9.73,9.73,0,0,0,250,27.2Z"/><path class="cls-2" d="M294,61a18.89,18.89,0,0,1-10.15-2.76,19.73,19.73,0,0,1-7.07-7.56,22.46,22.46,0,0,1-2.6-10.88A22.22,22.22,0,0,1,276.76,29a19.58,19.58,0,0,1,7.07-7.48A19.13,19.13,0,0,1,294,18.75a17.54,17.54,0,0,1,8,1.71,14.3,14.3,0,0,1,5.52,4.79V1.53h10.4V60H308.6l-1.14-5.77A18.65,18.65,0,0,1,302.31,59,15.41,15.41,0,0,1,294,61Zm2.19-9.1a10.88,10.88,0,0,0,8.25-3.37,12,12,0,0,0,3.21-8.65,12,12,0,0,0-3.21-8.65,11.77,11.77,0,0,0-16.45,0,11.79,11.79,0,0,0-3.25,8.61A12.07,12.07,0,0,0,288,48.48,10.81,10.81,0,0,0,296.17,51.89Z"/><path class="cls-2" d="M15.38,15.44q4.87-5.35,13-5.36t13,5.36A19.57,19.57,0,0,1,46,26.9H56.68a30.43,30.43,0,0,0-3.44-12.06,26.14,26.14,0,0,0-10-10.36A29.07,29.07,0,0,0,28.38.74,29,29,0,0,0,13.47,4.48a26.41,26.41,0,0,0-10,10.36A30,30,0,0,0,0,26.9H10.67A19.53,19.53,0,0,1,15.38,15.44ZM41.33,45.93Q36.5,51.3,28.38,51.29t-13-5.36c-2.65-2.93-4.23-7.28-4.71-12H0a32.57,32.57,0,0,0,3.48,12.6,26.41,26.41,0,0,0,10,10.36,29,29,0,0,0,14.91,3.73A29.06,29.06,0,0,0,43.25,56.9a26.14,26.14,0,0,0,10-10.36,33.08,33.08,0,0,0,3.44-12.6H46C45.53,38.65,44,43,41.33,45.93Z"/></g></g></svg>