<svg viewBox="0 0 559.54 77.89" xmlns="http://www.w3.org/2000/svg"><path d="m328.23 58.48v-56.86h10.4v23.64h25.5v-23.64h10.4v56.86h-10.4v-24.77h-25.5v24.77z" fill="#fda50d"/><path d="m402 59.46a22 22 0 0 1 -10.8-2.6 18.82 18.82 0 0 1 -7.39-7.31 21.6 21.6 0 0 1 -2.68-10.89 23 23 0 0 1 2.64-11.12 19.17 19.17 0 0 1 7.31-7.6 21.49 21.49 0 0 1 11-2.72 20.76 20.76 0 0 1 10.48 2.6 18.61 18.61 0 0 1 7.11 7.11 19.91 19.91 0 0 1 2.56 10v1.87s-.07 1.32-.12 2h-30.65a10.54 10.54 0 0 0 3.29 7.39 10.34 10.34 0 0 0 7.19 2.68 9.42 9.42 0 0 0 5.32-1.42 8.75 8.75 0 0 0 3.21-3.7h10.53a19.2 19.2 0 0 1 -3.78 6.95 18.64 18.64 0 0 1 -6.49 4.91 20.62 20.62 0 0 1 -8.73 1.85zm.08-33.79a11.11 11.11 0 0 0 -6.74 2.15 10 10 0 0 0 -3.73 6.54h20.06a8.77 8.77 0 0 0 -2.91-6.36 9.7 9.7 0 0 0 -6.66-2.33z" fill="#fda50d"/><path d="m441.25 59.46a19.05 19.05 0 0 1 -8.53-1.67 11.57 11.57 0 0 1 -5-4.42 11.82 11.82 0 0 1 -1.62-6.1 11.09 11.09 0 0 1 4.38-9.09q4.39-3.49 13.16-3.5h10.24v-1q0-4.14-2.36-6.09a8.87 8.87 0 0 0 -5.85-1.95 10.05 10.05 0 0 0 -5.52 1.5 6.44 6.44 0 0 0 -2.92 4.43h-10.12a14.15 14.15 0 0 1 3-7.64 16.55 16.55 0 0 1 6.62-5 22.72 22.72 0 0 1 9.1-1.75q8.61 0 13.56 4.31t5 12.18v24.81h-8.86l-1-6.49a15.07 15.07 0 0 1 -5 5.36 14.8 14.8 0 0 1 -8.28 2.11zm2.35-8.12a8.61 8.61 0 0 0 6.95-2.93 14.18 14.18 0 0 0 3.12-7.23h-8.85q-4.14 0-5.93 1.51a4.65 4.65 0 0 0 -1.79 3.69 4.28 4.28 0 0 0 1.79 3.62 7.87 7.87 0 0 0 4.71 1.34z" fill="#fda50d"/><path d="m471.8 58.48v-58.48h10.39v58.48z" fill="#fda50d"/><path d="m507.23 58.48q-6.33 0-10.15-3.08t-3.82-11v-17.51h-6.9v-8.7h6.9l1.22-10.8h9.18v10.8h10.89v8.7h-10.89v17.62q0 2.93 1.26 4c.84.73 2.29 1.1 4.35 1.1h5v8.85z" fill="#fda50d"/><path d="m520.06 58.48v-58.48h10.4v24.37a14.52 14.52 0 0 1 5.48-5.24 16.12 16.12 0 0 1 7.92-1.91q7.47 0 11.58 4.71t4.1 13.81v22.74h-10.32v-21.77q0-5.19-2.07-8t-6.54-2.71a9.52 9.52 0 0 0 -7.27 3.09q-2.88 3.09-2.88 8.61v20.78z" fill="#fda50d"/><g fill="#0c2659"><path d="m63.14 77.89v-58.16h9.26l1.14 5.76a18.7 18.7 0 0 1 5.16-4.71 15.37 15.37 0 0 1 8.32-2 19 19 0 0 1 10.16 2.76 19.85 19.85 0 0 1 7.06 7.56 22.35 22.35 0 0 1 2.6 10.9 22.18 22.18 0 0 1 -2.6 10.85 19.6 19.6 0 0 1 -7.06 7.47 19.19 19.19 0 0 1 -10.18 2.68 17.57 17.57 0 0 1 -8-1.71 14.3 14.3 0 0 1 -5.52-4.79v23.4zm21.69-26a11 11 0 0 0 8.17-3.33 11.79 11.79 0 0 0 3.28-8.56 12.08 12.08 0 0 0 -3.28-8.74 11.66 11.66 0 0 0 -16.44 0 12 12 0 0 0 -3.21 8.65 12 12 0 0 0 3.21 8.65 10.84 10.84 0 0 0 8.27 3.33z"/><path d="m130.11 60q-6.33 0-10.15-3.09t-3.82-11v-17.49h-6.9v-8.69h6.9l1.22-10.81h9.18v10.81h10.88v8.69h-10.88v17.58q0 2.93 1.26 4c.84.74 2.29 1.1 4.34 1.1h5v8.9z"/><path d="m147.85 13.47a6.61 6.61 0 0 1 -4.67-1.7 5.65 5.65 0 0 1 -1.83-4.31 5.5 5.5 0 0 1 1.83-4.26 7.36 7.36 0 0 1 9.34 0 5.5 5.5 0 0 1 1.83 4.26 5.65 5.65 0 0 1 -1.83 4.31 6.58 6.58 0 0 1 -4.67 1.7zm-5.2 46.53v-40.27h10.4v40.27z"/><path d="m161.66 60v-56.84h12.34l18.11 36.06 17.89-36.06h12.35v56.84h-10.4v-39.22l-15.85 31.11h-8.2l-15.84-31.11v39.22z"/><path d="m249.87 61a22 22 0 0 1 -10.8-2.6 18.82 18.82 0 0 1 -7.39-7.31 21.59 21.59 0 0 1 -2.68-10.89 23 23 0 0 1 2.64-11.13 19.17 19.17 0 0 1 7.31-7.6 21.51 21.51 0 0 1 11-2.72 20.74 20.74 0 0 1 10.47 2.6 18.61 18.61 0 0 1 7.11 7.11 19.91 19.91 0 0 1 2.56 10v1.87s-.07 1.33-.12 2h-30.66a10.54 10.54 0 0 0 3.29 7.39 10.34 10.34 0 0 0 7.19 2.68 9.42 9.42 0 0 0 5.32-1.4 8.75 8.75 0 0 0 3.21-3.7h10.56a19.2 19.2 0 0 1 -3.78 6.95 18.64 18.64 0 0 1 -6.49 4.91 20.62 20.62 0 0 1 -8.74 1.84zm.13-33.8a11.12 11.12 0 0 0 -6.75 2.15 10 10 0 0 0 -3.73 6.54h20.06a8.81 8.81 0 0 0 -2.92-6.34 9.73 9.73 0 0 0 -6.66-2.35z"/><path d="m294 61a18.89 18.89 0 0 1 -10.15-2.76 19.73 19.73 0 0 1 -7.07-7.56 22.46 22.46 0 0 1 -2.6-10.88 22.22 22.22 0 0 1 2.58-10.8 19.58 19.58 0 0 1 7.07-7.48 19.13 19.13 0 0 1 10.17-2.77 17.54 17.54 0 0 1 8 1.71 14.3 14.3 0 0 1 5.52 4.79v-23.72h10.4v58.47h-9.32l-1.14-5.77a18.65 18.65 0 0 1 -5.15 4.77 15.41 15.41 0 0 1 -8.31 2zm2.19-9.1a10.88 10.88 0 0 0 8.25-3.37 12 12 0 0 0 3.21-8.65 12 12 0 0 0 -3.21-8.65 11.77 11.77 0 0 0 -16.45 0 11.79 11.79 0 0 0 -3.25 8.61 12.07 12.07 0 0 0 3.26 8.64 10.81 10.81 0 0 0 8.17 3.41z"/><path d="m15.38 15.44q4.87-5.35 13-5.36t13 5.36a19.57 19.57 0 0 1 4.62 11.46h10.68a30.43 30.43 0 0 0 -3.44-12.06 26.14 26.14 0 0 0 -10-10.36 29.07 29.07 0 0 0 -14.86-3.74 29 29 0 0 0 -14.91 3.74 26.41 26.41 0 0 0 -10 10.36 30 30 0 0 0 -3.47 12.06h10.67a19.53 19.53 0 0 1 4.71-11.46zm25.95 30.49q-4.83 5.37-12.95 5.36t-13-5.36c-2.65-2.93-4.23-7.28-4.71-12h-10.67a32.57 32.57 0 0 0 3.48 12.6 26.41 26.41 0 0 0 10 10.36 29 29 0 0 0 14.91 3.73 29.06 29.06 0 0 0 14.86-3.72 26.14 26.14 0 0 0 10-10.36 33.08 33.08 0 0 0 3.44-12.6h-10.69c-.47 4.71-2 9.06-4.67 11.99z"/></g><path d="m328.23 58.48v-56.86h10.4v23.64h25.5v-23.64h10.4v56.86h-10.4v-24.77h-25.5v24.77z" fill="#fda50d"/><path d="m402 59.46a22 22 0 0 1 -10.8-2.6 18.82 18.82 0 0 1 -7.39-7.31 21.6 21.6 0 0 1 -2.68-10.89 23 23 0 0 1 2.64-11.12 19.17 19.17 0 0 1 7.31-7.6 21.49 21.49 0 0 1 11-2.72 20.76 20.76 0 0 1 10.48 2.6 18.61 18.61 0 0 1 7.11 7.11 19.91 19.91 0 0 1 2.56 10v1.87s-.07 1.32-.12 2h-30.65a10.54 10.54 0 0 0 3.29 7.39 10.34 10.34 0 0 0 7.19 2.68 9.42 9.42 0 0 0 5.32-1.42 8.75 8.75 0 0 0 3.21-3.7h10.53a19.2 19.2 0 0 1 -3.78 6.95 18.64 18.64 0 0 1 -6.49 4.91 20.62 20.62 0 0 1 -8.73 1.85zm.08-33.79a11.11 11.11 0 0 0 -6.74 2.15 10 10 0 0 0 -3.73 6.54h20.06a8.77 8.77 0 0 0 -2.91-6.36 9.7 9.7 0 0 0 -6.66-2.33z" fill="#fda50d"/><path d="m441.25 59.46a19.05 19.05 0 0 1 -8.53-1.67 11.57 11.57 0 0 1 -5-4.42 11.82 11.82 0 0 1 -1.62-6.1 11.09 11.09 0 0 1 4.38-9.09q4.39-3.49 13.16-3.5h10.24v-1q0-4.14-2.36-6.09a8.87 8.87 0 0 0 -5.85-1.95 10.05 10.05 0 0 0 -5.52 1.5 6.44 6.44 0 0 0 -2.92 4.43h-10.12a14.15 14.15 0 0 1 3-7.64 16.55 16.55 0 0 1 6.62-5 22.72 22.72 0 0 1 9.1-1.75q8.61 0 13.56 4.31t5 12.18v24.81h-8.86l-1-6.49a15.07 15.07 0 0 1 -5 5.36 14.8 14.8 0 0 1 -8.28 2.11zm2.35-8.12a8.61 8.61 0 0 0 6.95-2.93 14.18 14.18 0 0 0 3.12-7.23h-8.85q-4.14 0-5.93 1.51a4.65 4.65 0 0 0 -1.79 3.69 4.28 4.28 0 0 0 1.79 3.62 7.87 7.87 0 0 0 4.71 1.34z" fill="#fda50d"/><path d="m471.8 58.48v-58.48h10.39v58.48z" fill="#fda50d"/><path d="m507.23 58.48q-6.33 0-10.15-3.08t-3.82-11v-17.51h-6.9v-8.7h6.9l1.22-10.8h9.18v10.8h10.89v8.7h-10.89v17.62q0 2.93 1.26 4c.84.73 2.29 1.1 4.35 1.1h5v8.85z" fill="#fda50d"/><path d="m520.06 58.48v-58.48h10.4v24.37a14.52 14.52 0 0 1 5.48-5.24 16.12 16.12 0 0 1 7.92-1.91q7.47 0 11.58 4.71t4.1 13.81v22.74h-10.32v-21.77q0-5.19-2.07-8t-6.54-2.71a9.52 9.52 0 0 0 -7.27 3.09q-2.88 3.09-2.88 8.61v20.78z" fill="#fda50d"/><path d="m63.14 77.89v-58.16h9.26l1.14 5.76a18.7 18.7 0 0 1 5.16-4.71 15.37 15.37 0 0 1 8.32-2 19 19 0 0 1 10.16 2.76 19.85 19.85 0 0 1 7.06 7.56 22.35 22.35 0 0 1 2.6 10.9 22.18 22.18 0 0 1 -2.6 10.85 19.6 19.6 0 0 1 -7.06 7.47 19.19 19.19 0 0 1 -10.18 2.68 17.57 17.57 0 0 1 -8-1.71 14.3 14.3 0 0 1 -5.52-4.79v23.4zm21.69-26a11 11 0 0 0 8.17-3.33 11.79 11.79 0 0 0 3.28-8.56 12.08 12.08 0 0 0 -3.28-8.74 11.66 11.66 0 0 0 -16.44 0 12 12 0 0 0 -3.21 8.65 12 12 0 0 0 3.21 8.65 10.84 10.84 0 0 0 8.27 3.33z" fill="#0c2659"/><path d="m130.11 60q-6.33 0-10.15-3.09t-3.82-11v-17.49h-6.9v-8.69h6.9l1.22-10.81h9.18v10.81h10.88v8.69h-10.88v17.58q0 2.93 1.26 4c.84.74 2.29 1.1 4.34 1.1h5v8.9z" fill="#0c2659"/><path d="m147.85 13.47a6.61 6.61 0 0 1 -4.67-1.7 5.65 5.65 0 0 1 -1.83-4.31 5.5 5.5 0 0 1 1.83-4.26 7.36 7.36 0 0 1 9.34 0 5.5 5.5 0 0 1 1.83 4.26 5.65 5.65 0 0 1 -1.83 4.31 6.58 6.58 0 0 1 -4.67 1.7zm-5.2 46.53v-40.27h10.4v40.27z" fill="#0c2659"/><path d="m161.66 60v-56.84h12.34l18.11 36.06 17.89-36.06h12.35v56.84h-10.4v-39.22l-15.85 31.11h-8.2l-15.84-31.11v39.22z" fill="#0c2659"/><path d="m249.87 61a22 22 0 0 1 -10.8-2.6 18.82 18.82 0 0 1 -7.39-7.31 21.59 21.59 0 0 1 -2.68-10.89 23 23 0 0 1 2.64-11.13 19.17 19.17 0 0 1 7.31-7.6 21.51 21.51 0 0 1 11-2.72 20.74 20.74 0 0 1 10.47 2.6 18.61 18.61 0 0 1 7.11 7.11 19.91 19.91 0 0 1 2.56 10v1.87s-.07 1.33-.12 2h-30.66a10.54 10.54 0 0 0 3.29 7.39 10.34 10.34 0 0 0 7.19 2.68 9.42 9.42 0 0 0 5.32-1.4 8.75 8.75 0 0 0 3.21-3.7h10.56a19.2 19.2 0 0 1 -3.78 6.95 18.64 18.64 0 0 1 -6.49 4.91 20.62 20.62 0 0 1 -8.74 1.84zm.13-33.8a11.12 11.12 0 0 0 -6.75 2.15 10 10 0 0 0 -3.73 6.54h20.06a8.81 8.81 0 0 0 -2.92-6.34 9.73 9.73 0 0 0 -6.66-2.35z" fill="#0c2659"/><path d="m294 61a18.89 18.89 0 0 1 -10.15-2.76 19.73 19.73 0 0 1 -7.07-7.56 22.46 22.46 0 0 1 -2.6-10.88 22.22 22.22 0 0 1 2.58-10.8 19.58 19.58 0 0 1 7.07-7.48 19.13 19.13 0 0 1 10.17-2.77 17.54 17.54 0 0 1 8 1.71 14.3 14.3 0 0 1 5.52 4.79v-23.72h10.4v58.47h-9.32l-1.14-5.77a18.65 18.65 0 0 1 -5.15 4.77 15.41 15.41 0 0 1 -8.31 2zm2.19-9.1a10.88 10.88 0 0 0 8.25-3.37 12 12 0 0 0 3.21-8.65 12 12 0 0 0 -3.21-8.65 11.77 11.77 0 0 0 -16.45 0 11.79 11.79 0 0 0 -3.25 8.61 12.07 12.07 0 0 0 3.26 8.64 10.81 10.81 0 0 0 8.17 3.41z" fill="#0c2659"/><path d="m15.38 15.44q4.87-5.35 13-5.36t13 5.36a19.57 19.57 0 0 1 4.62 11.46h10.68a30.43 30.43 0 0 0 -3.44-12.06 26.14 26.14 0 0 0 -10-10.36 29.07 29.07 0 0 0 -14.86-3.74 29 29 0 0 0 -14.91 3.74 26.41 26.41 0 0 0 -10 10.36 30 30 0 0 0 -3.47 12.06h10.67a19.53 19.53 0 0 1 4.71-11.46zm25.95 30.49q-4.83 5.37-12.95 5.36t-13-5.36c-2.65-2.93-4.23-7.28-4.71-12h-10.67a32.57 32.57 0 0 0 3.48 12.6 26.41 26.41 0 0 0 10 10.36 29 29 0 0 0 14.91 3.73 29.06 29.06 0 0 0 14.86-3.72 26.14 26.14 0 0 0 10-10.36 33.08 33.08 0 0 0 3.44-12.6h-10.69c-.47 4.71-2 9.06-4.67 11.99z" fill="#0c2659"/></svg>